HIERARCHY
ROOT Hips
{
	OFFSET -3.958830 18.904000 13.208200
	CHANNELS 6 Xposition Yposition Zposition Zrotation Yrotation Xrotation 
	JOINT LHipJoint
	{
		OFFSET 0.000000 0.000000 0.000000
		CHANNELS 3 Zrotation Yrotation Xrotation
		JOINT LeftUpLeg
		{
			OFFSET 1.800000 -1.400000 0.085000
			CHANNELS 3 Zrotation Yrotation Xrotation
			JOINT LeftLeg
			{
				OFFSET 2.215000 -6.000000 0.000000
				CHANNELS 3 Zrotation Yrotation Xrotation
				JOINT LeftFoot
				{
					OFFSET 2.500000 -6.900000 0.000000
					CHANNELS 3 Zrotation Yrotation Xrotation
					JOINT LeftToeBase
					{
						OFFSET 0.200000 -0.500000 1.950000
						CHANNELS 3 Zrotation Yrotation Xrotation
						End Site
						{
							OFFSET 0.000000 0.000000 0.000000
						}
					}
				}
			}
		}
	}
	JOINT RHipJoint
	{
		OFFSET 0.000000 0.000000 0.000000
		CHANNELS 3 Zrotation Yrotation Xrotation
		JOINT RightUpLeg
		{
			OFFSET -1.800000 -1.400000 0.085000
			CHANNELS 3 Zrotation Yrotation Xrotation
			JOINT RightLeg
			{
				OFFSET -2.215000 -6.000000 0.000000
				CHANNELS 3 Zrotation Yrotation Xrotation
				JOINT RightFoot
				{
					OFFSET -2.500000 -6.900000 0.000000
					CHANNELS 3 Zrotation Yrotation Xrotation
					JOINT RightToeBase
					{
						OFFSET -0.200000 -0.500000 1.950000
						CHANNELS 3 Zrotation Yrotation Xrotation
						End Site
						{
							OFFSET 0.000000 0.000000 0.000000
						}
					}
				}
			}
		}
	}
	JOINT LowerBack
	{
		OFFSET 0.000000 0.000000 0.000000
		CHANNELS 3 Zrotation Yrotation Xrotation
		JOINT Spine
		{
			OFFSET -0.087000 1.940000 -0.288900
			CHANNELS 3 Zrotation Yrotation Xrotation
			JOINT Spine1
			{
				OFFSET 0.000000 1.950000 0.060000
				CHANNELS 3 Zrotation Yrotation Xrotation
				JOINT Neck
				{
					OFFSET 0.000000 0.000000 0.000000
					CHANNELS 3 Zrotation Yrotation Xrotation
					JOINT Neck1
					{
						OFFSET 0.000000 1.600000 0.340000
						CHANNELS 3 Zrotation Yrotation Xrotation
						JOINT Head
						{
							OFFSET 0.000000 1.667000 -0.240000
							CHANNELS 3 Zrotation Yrotation Xrotation
							End Site
							{
								OFFSET 0.000000 0.000000 0.000000
							}
						}
					}
				}
				JOINT LeftShoulder
				{
					OFFSET 0.000000 0.000000 0.000000
					CHANNELS 3 Zrotation Yrotation Xrotation
					JOINT LeftArm
					{
						OFFSET 2.700000 1.550000 -0.730000
						CHANNELS 3 Zrotation Yrotation Xrotation
						JOINT LeftForeArm
						{
							OFFSET 5.450000 0.000000 0.000000
							CHANNELS 3 Zrotation Yrotation Xrotation
							JOINT LeftHand
							{
								OFFSET 3.450000 0.000000 0.000000
								CHANNELS 3 Zrotation Yrotation Xrotation
								JOINT LeftHandIndex1
								{
									OFFSET 0.750000 0.000000 0.000000
									CHANNELS 3 Zrotation Yrotation Xrotation
									End Site
									{
										OFFSET 0.000000 0.000000 0.000000
									}
								}
							}
						}
					}
				}
				JOINT RightShoulder
				{
					OFFSET 0.000000 0.000000 0.000000
					CHANNELS 3 Zrotation Yrotation Xrotation
					JOINT RightArm
					{
						OFFSET -2.700000 1.550000 -0.730000
						CHANNELS 3 Zrotation Yrotation Xrotation
						JOINT RightForeArm
						{
							OFFSET -5.450000 0.000000 0.000000
							CHANNELS 3 Zrotation Yrotation Xrotation
							JOINT RightHand
							{
								OFFSET -3.450000 0.000000 0.000000
								CHANNELS 3 Zrotation Yrotation Xrotation
								JOINT RightHandIndex1
								{
									OFFSET -0.750000 0.000000 0.000000
									CHANNELS 3 Zrotation Yrotation Xrotation
									End Site
									{
										OFFSET 0.000000 0.000000 0.000000
									}
								}
							}
						}
					}
				}
			}
		}
	}
}
MOTION
Frames: 9
Frame Time: 0.016667
0.401200 16.956010 -2.435020 -0.629270 -5.986029 1.768058 -15.083198 13.375240 3.560344 -1.450649 -1.207999 -9.725777 -8.834782 4.571246 4.085233 0.136387 3.185850 3.480878 0.031570 -0.107590 0.095630 18.185633 -10.972566 3.146787 -4.023230 -0.946945 -1.982508 8.685344 -5.026190 7.286257 -0.245432 -3.849090 3.099883 -0.102400 -0.034360 0.014780 -3.447712 -1.902181 -8.450184 10.793129 1.530811 13.900721 -2.781028 3.879400 -1.995907 2.469743 -3.234891 -14.141238 -11.357228 -0.585474 48.680025 -3.401260 -4.244820 7.198030 -3.417588 -10.075850 4.188308 19.977855 8.132645 -0.417834 68.799614 -15.842946 -6.085158 -3.799411 3.157417 0.059720 -0.031410 -0.016060 -0.001220 -0.992769 15.920489 9.372625 -16.970900 -11.807414 -5.497629 -77.816728 0.827055 1.285589 2.970960 -1.942164 0.016520 -0.065060 -0.042460 -0.019580 
0.391980 16.944230 -2.435100 -0.592391 -5.844041 2.095721 -15.115811 13.344073 3.569975 -1.462547 -1.250832 -9.972498 -9.084917 4.513222 3.590205 0.139476 3.190040 3.485230 0.027080 -0.104840 0.080970 18.167075 -10.931112 3.138311 -3.839151 -0.942646 -1.970896 8.919162 -5.059531 7.263668 -0.239858 -3.881560 3.093427 -0.096520 -0.013880 0.027130 -3.378793 -1.927086 -8.439747 10.164300 1.650663 13.532010 -1.989812 3.774416 -1.942828 2.411488 -3.346614 -13.830778 -11.322423 -0.738132 47.422871 -3.931050 -3.957960 7.280640 -3.090394 -9.461413 4.064573 19.014057 8.173161 -0.365373 70.325463 -17.169561 -7.061606 -3.826341 3.170972 0.034740 -0.006450 -0.030180 0.005520 -1.138616 15.403336 9.100195 -16.523830 -11.618313 -5.487844 -79.718583 2.264335 0.211843 2.941208 -1.970097 0.020320 -0.068140 -0.038010 -0.010980 
0.378490 16.928860 -2.463270 -0.665250 -6.209414 2.259223 -15.147973 13.347590 3.570392 -1.324767 -1.319307 -10.458633 -9.257874 4.497943 3.496533 0.122183 3.186579 3.485297 0.045520 -0.073250 0.099770 18.142538 -10.883322 3.130580 -3.666409 -0.894134 -2.135816 9.311758 -5.120193 7.410005 -0.242593 -3.895418 3.085682 -0.071260 -0.011910 0.036830 -3.291474 -2.011539 -8.426808 9.758723 1.726360 14.178288 -1.446420 3.822477 -2.096399 2.504984 -3.262151 -13.209032 -10.792250 -0.931577 45.837516 -4.807620 -3.098890 6.228140 -3.249171 -8.560030 3.610167 18.298240 7.816951 -0.269986 73.267542 -19.151240 -8.755514 -3.843387 3.162002 0.021180 0.011040 -0.027810 0.007310 -1.168824 14.514452 8.637714 -15.342407 -11.404286 -5.602310 -83.502235 5.363928 -2.427957 2.885040 -1.997354 0.022850 -0.062370 -0.045960 -0.014660 
0.375620 16.916840 -2.490650 -0.624660 -6.360573 2.385819 -15.182233 13.356752 3.590456 -1.313594 -1.418698 -11.007683 -9.690472 4.516984 3.403094 0.112526 3.203363 3.477647 0.070500 -0.030620 0.106030 18.114091 -10.807969 3.135384 -3.710659 -0.862091 -2.035631 9.733311 -5.117819 7.045224 -0.247631 -3.933249 3.073557 -0.037240 0.000020 0.051440 -3.201372 -2.158569 -8.439805 9.368395 1.627120 15.047004 -0.889108 3.786538 -3.101028 2.478565 -3.610321 -12.465719 -11.078787 -0.691163 44.253017 -5.554250 -2.271310 5.446880 -3.940268 -7.100690 2.951238 16.003156 6.876867 -0.274218 79.475601 -20.470289 -10.992598 -3.860781 3.174003 -0.005870 0.036830 -0.034500 0.017650 -0.410229 13.466939 8.090489 -13.220877 -10.503370 -5.656354 -90.284456 9.594966 -6.814700 2.793678 -2.039703 0.031400 -0.060850 -0.053190 -0.010170 
0.369740 16.903140 -2.521230 -0.631913 -6.816990 1.720066 -15.188519 13.290436 3.552040 -1.334114 -1.327204 -10.626429 -9.524410 4.471110 3.161925 0.082408 3.231399 3.475383 0.104800 0.025310 0.114030 18.127896 -10.812268 3.135081 -3.788753 -0.942540 -1.384804 9.825917 -5.147861 6.808178 -0.264491 -4.047551 3.034016 0.020220 0.029930 0.061260 -3.208307 -2.027098 -8.374562 9.125037 1.720994 15.852063 -0.505756 3.807151 -2.301856 2.328962 -3.310263 -11.475528 -9.714632 -0.463846 42.755189 -5.437620 -1.439050 4.518250 -4.628217 -5.480694 2.290815 11.533498 5.354646 -0.600128 88.423960 -23.229389 -16.149710 -3.876728 3.184981 -0.035180 0.074280 -0.052030 0.033450 0.411078 11.690066 7.360357 -8.654411 -7.165488 -6.189914 -98.530596 13.724327 -13.383665 2.668823 -2.095136 0.024340 -0.043150 -0.060570 -0.008260 
0.372840 16.898120 -2.564250 -0.261371 -7.181551 0.333967 -15.133406 13.112142 3.459854 -1.507676 -1.136796 -9.528007 -9.484947 4.572155 3.464915 0.050212 3.321552 3.459234 0.142620 0.082820 0.126680 18.216795 -10.924798 3.102103 -4.442677 -1.082999 -0.478406 9.638322 -5.249959 6.816800 -0.289880 -4.235743 2.970040 0.085910 0.064370 0.068700 -3.419973 -1.549211 -8.192634 9.380044 1.559809 16.164382 -1.229373 3.358705 1.465800 2.210394 -2.927098 -10.581000 -8.049905 -0.409490 40.878741 -5.543860 -0.664650 3.385340 -5.660083 -4.466077 1.905031 4.348131 2.397179 -1.633443 98.704488 -24.634073 -23.117483 -3.875224 3.215594 -0.063880 0.116610 -0.074660 0.051740 1.439639 10.111883 6.922378 -0.776209 -1.970255 -6.883100 -108.200123 17.518711 -23.473463 2.513299 -2.161920 0.008570 -0.018320 -0.069960 -0.009980 
0.362520 16.915010 -2.615180 0.190426 -7.511397 -1.551045 -15.077920 12.925360 3.346966 -1.463700 -0.871761 -8.007151 -9.783226 4.812742 4.081841 0.014038 3.467710 3.407189 0.233340 0.201740 0.173130 18.318244 -11.032224 3.046632 -5.026429 -1.300706 0.850477 9.163611 -5.375298 7.081359 -0.356468 -4.416189 2.898920 0.182650 0.061250 0.067140 -3.657315 -1.088785 -7.947711 9.648868 1.446463 16.896251 -1.779011 3.019652 6.799497 1.915646 -3.321921 -9.485723 -8.028008 -0.074545 38.857657 -4.616160 -0.802020 -0.634290 -6.962515 -3.096020 1.571587 -5.680521 -3.189795 -2.036950 107.945823 -25.744306 -31.901684 -3.817318 3.228924 -0.050990 0.109760 -0.059090 0.071400 3.290649 8.723010 6.284266 7.513289 4.385477 -6.506077 -116.292475 21.050260 -35.888039 2.346553 -2.157481 0.004050 0.030710 -0.094460 -0.016050 
0.348950 16.912250 -2.642930 0.565917 -7.022048 -2.294604 -15.005326 12.644472 3.176066 -1.915803 -0.831015 -7.542299 -9.090602 4.813872 4.875197 -0.066120 3.450697 3.406532 0.272910 0.250940 0.191470 18.456829 -11.154982 3.004608 -5.527941 -1.432848 1.483835 9.302259 -5.511413 6.831892 -0.396986 -4.585773 2.826837 0.240040 0.072230 0.071190 -3.989807 -0.437874 -7.612624 9.923692 1.598795 14.790969 -2.642158 2.790021 13.240203 1.793942 -2.739740 -9.051995 -6.533327 -0.445422 37.761703 -3.678690 -1.255540 -2.919190 -8.114610 -3.573185 2.204770 -16.148234 -9.792408 -0.897318 113.984246 -28.702149 -43.033518 -3.774686 3.188259 -0.044240 0.118740 -0.066090 0.070170 4.930569 8.082743 6.189356 18.298755 10.088195 -5.162342 -120.882396 25.176035 -49.543423 2.202424 -2.101723 -0.011030 0.058590 -0.088990 -0.026700 
0.336590 16.897230 -2.650260 0.542906 -6.859865 -2.060115 -14.957303 12.527406 3.089329 -2.142763 -0.938756 -7.939814 -8.596667 4.754091 5.423388 -0.099187 3.357619 3.427617 0.316770 0.303220 0.224370 18.536913 -11.207800 2.970188 -5.440690 -1.459377 1.209551 9.271172 -5.512918 6.830493 -0.424051 -4.570698 2.824241 0.266450 0.043200 0.073440 -4.186753 -0.153063 -7.407181 10.658521 1.650825 12.831507 -3.155302 2.684425 15.977048 1.892861 -2.877882 -8.727936 -6.910739 -0.532728 38.432443 -3.696480 -1.546600 -4.587820 -12.543357 -4.513784 2.761206 -25.586872 -13.547398 0.730987 116.353311 -33.684919 -53.779147 -3.711034 3.072384 -0.024760 0.095200 -0.035560 0.078520 9.281596 8.680179 6.286395 26.490916 13.093866 -3.598028 -123.012334 31.495850 -63.754829 2.144799 -1.948251 0.002070 0.066860 -0.111960 -0.029600 
